<svg width="27" height="30" viewBox="0 0 27 30" fill="none" xmlns="http://www.w3.org/2000/svg">
<path d="M8.4375 3.33651C7.98995 3.33651 7.56073 3.51206 7.24426 3.82453C6.92779 4.13701 6.75 4.56081 6.75 5.00272C6.75 5.44463 6.92779 5.86844 7.24426 6.18091C7.56073 6.49339 7.98995 6.66893 8.4375 6.66893C8.88505 6.66893 9.31427 6.49339 9.63074 6.18091C9.94721 5.86844 10.125 5.44463 10.125 5.00272C10.125 4.56081 9.94721 4.13701 9.63074 3.82453C9.31427 3.51206 8.88505 3.33651 8.4375 3.33651ZM3.66188 3.33651C4.01052 2.36089 4.65706 1.51606 5.51239 0.918483C6.36771 0.320906 7.38971 0 8.4375 0C9.48529 0 10.5073 0.320906 11.3626 0.918483C12.2179 1.51606 12.8645 2.36089 13.2131 3.33651H25.3125C25.7601 3.33651 26.1893 3.51206 26.5057 3.82453C26.8222 4.13701 27 4.56081 27 5.00272C27 5.44463 26.8222 5.86844 26.5057 6.18091C26.1893 6.49339 25.7601 6.66893 25.3125 6.66893H13.2131C12.8645 7.64456 12.2179 8.48938 11.3626 9.08696C10.5073 9.68454 9.48529 10.0054 8.4375 10.0054C7.38971 10.0054 6.36771 9.68454 5.51239 9.08696C4.65706 8.48938 4.01052 7.64456 3.66188 6.66893H1.6875C1.23995 6.66893 0.810725 6.49339 0.494258 6.18091C0.17779 5.86844 0 5.44463 0 5.00272C0 4.56081 0.17779 4.13701 0.494258 3.82453C0.810725 3.51206 1.23995 3.33651 1.6875 3.33651H3.66188ZM18.5625 13.3338C18.1149 13.3338 17.6857 13.5093 17.3693 13.8218C17.0528 14.1343 16.875 14.5581 16.875 15C16.875 15.4419 17.0528 15.8657 17.3693 16.1782C17.6857 16.4907 18.1149 16.6662 18.5625 16.6662C19.0101 16.6662 19.4393 16.4907 19.7557 16.1782C20.0722 15.8657 20.25 15.4419 20.25 15C20.25 14.5581 20.0722 14.1343 19.7557 13.8218C19.4393 13.5093 19.0101 13.3338 18.5625 13.3338ZM13.7869 13.3338C14.1355 12.3582 14.7821 11.5133 15.6374 10.9158C16.4927 10.3182 17.5147 9.99728 18.5625 9.99728C19.6103 9.99728 20.6323 10.3182 21.4876 10.9158C22.3429 11.5133 22.9895 12.3582 23.3381 13.3338H25.3125C25.7601 13.3338 26.1893 13.5093 26.5057 13.8218C26.8222 14.1343 27 14.5581 27 15C27 15.4419 26.8222 15.8657 26.5057 16.1782C26.1893 16.4907 25.7601 16.6662 25.3125 16.6662H23.3381C22.9895 17.6418 22.3429 18.4867 21.4876 19.0842C20.6323 19.6818 19.6103 20.0027 18.5625 20.0027C17.5147 20.0027 16.4927 19.6818 15.6374 19.0842C14.7821 18.4867 14.1355 17.6418 13.7869 16.6662H1.6875C1.23995 16.6662 0.810725 16.4907 0.494258 16.1782C0.17779 15.8657 0 15.4419 0 15C0 14.5581 0.17779 14.1343 0.494258 13.8218C0.810725 13.5093 1.23995 13.3338 1.6875 13.3338H13.7869ZM8.4375 23.3311C7.98995 23.3311 7.56073 23.5066 7.24426 23.8191C6.92779 24.1316 6.75 24.5554 6.75 24.9973C6.75 25.4392 6.92779 25.863 7.24426 26.1755C7.56073 26.4879 7.98995 26.6635 8.4375 26.6635C8.88505 26.6635 9.31427 26.4879 9.63074 26.1755C9.94721 25.863 10.125 25.4392 10.125 24.9973C10.125 24.5554 9.94721 24.1316 9.63074 23.8191C9.31427 23.5066 8.88505 23.3311 8.4375 23.3311ZM3.66188 23.3311C4.01052 22.3554 4.65706 21.5106 5.51239 20.913C6.36771 20.3155 7.38971 19.9946 8.4375 19.9946C9.48529 19.9946 10.5073 20.3155 11.3626 20.913C12.2179 21.5106 12.8645 22.3554 13.2131 23.3311H25.3125C25.7601 23.3311 26.1893 23.5066 26.5057 23.8191C26.8222 24.1316 27 24.5554 27 24.9973C27 25.4392 26.8222 25.863 26.5057 26.1755C26.1893 26.4879 25.7601 26.6635 25.3125 26.6635H13.2131C12.8645 27.6391 12.2179 28.4839 11.3626 29.0815C10.5073 29.6791 9.48529 30 8.4375 30C7.38971 30 6.36771 29.6791 5.51239 29.0815C4.65706 28.4839 4.01052 27.6391 3.66188 26.6635H1.6875C1.23995 26.6635 0.810725 26.4879 0.494258 26.1755C0.17779 25.863 0 25.4392 0 24.9973C0 24.5554 0.17779 24.1316 0.494258 23.8191C0.810725 23.5066 1.23995 23.3311 1.6875 23.3311H3.66188Z" fill="white"/>
</svg>
