<svg width="37" height="30" viewBox="0 0 37 30" fill="none" xmlns="http://www.w3.org/2000/svg">
<path fill-rule="evenodd" clip-rule="evenodd" d="M2.07406 19.1393C2.36533 19.1393 2.64467 19.2526 2.85063 19.4542C3.05659 19.6559 3.17229 19.9293 3.17229 20.2145V25.5907C3.17229 26.161 3.4037 26.708 3.81562 27.1113C4.22754 27.5146 4.78621 27.7411 5.36875 27.7411H31.7263C32.3088 27.7411 32.8675 27.5146 33.2794 27.1113C33.6913 26.708 33.9227 26.161 33.9227 25.5907V20.2145C33.9227 19.9293 34.0384 19.6559 34.2444 19.4542C34.4504 19.2526 34.7297 19.1393 35.021 19.1393C35.3122 19.1393 35.5916 19.2526 35.7975 19.4542C36.0035 19.6559 36.1192 19.9293 36.1192 20.2145V25.5907C36.1192 26.7313 35.6564 27.8253 34.8325 28.6319C34.0087 29.4384 32.8914 29.8916 31.7263 29.8916H5.36875C4.20368 29.8916 3.08632 29.4384 2.26249 28.6319C1.43865 27.8253 0.97583 26.7313 0.97583 25.5907V20.2145C0.97583 19.9293 1.09154 19.6559 1.29749 19.4542C1.50345 19.2526 1.78279 19.1393 2.07406 19.1393Z" fill="white"/>
<path fill-rule="evenodd" clip-rule="evenodd" d="M17.7699 23.3411C17.8719 23.4412 17.9931 23.5207 18.1265 23.5749C18.2599 23.6291 18.4029 23.657 18.5474 23.657C18.6919 23.657 18.8349 23.6291 18.9683 23.5749C19.1017 23.5207 19.2229 23.4412 19.3249 23.3411L25.9143 16.8897C26.1205 16.6878 26.2364 16.414 26.2364 16.1284C26.2364 15.8429 26.1205 15.5691 25.9143 15.3672C25.7081 15.1653 25.4284 15.0519 25.1368 15.0519C24.8451 15.0519 24.5655 15.1653 24.3592 15.3672L19.6456 19.9842V1.07523C19.6456 0.790061 19.5299 0.516572 19.324 0.314927C19.118 0.113283 18.8387 0 18.5474 0C18.2561 0 17.9768 0.113283 17.7708 0.314927C17.5649 0.516572 17.4492 0.790061 17.4492 1.07523V19.9842L12.7356 15.3672C12.5293 15.1653 12.2497 15.0519 11.958 15.0519C11.6664 15.0519 11.3867 15.1653 11.1805 15.3672C10.9743 15.5691 10.8584 15.8429 10.8584 16.1284C10.8584 16.414 10.9743 16.6878 11.1805 16.8897L17.7699 23.3411Z" fill="white"/>
</svg>
